<?xml version="1.0" encoding="UTF-8"?><svg id="Calque_1" xmlns="http://www.w3.org/2000/svg" viewBox="0 0 595.28 275.89"><defs><style>.cls-1,.cls-2{fill:#0064fb;}.cls-1,.cls-3{fill-rule:evenodd;}</style></defs><g id="path1543"><path class="cls-3" d="M421.72,146.93c-1.51-1.13-3.7-1.66-6.64-1.66-2.92,.02-5.81,.58-8.52,1.66-2.58,.91-5.08,2.05-7.47,3.39l-5.96-11.62c2.04-1.33,4.22-2.44,6.49-3.32,5.15-2.21,10.69-3.34,16.29-3.32,2.93,0,5.85,.38,8.67,1.13,2.66,.69,5.16,1.87,7.39,3.47,2.18,1.65,3.94,3.8,5.13,6.26,1.34,2.88,1.98,6.03,1.89,9.2v35.75h-15.09v-5.13c-1.47,2.27-3.64,3.99-6.19,4.9-2.76,1.11-5.7,1.67-8.67,1.66-4.99,.1-9.81-1.77-13.43-5.2-1.65-1.54-2.93-3.42-3.77-5.51-.9-2.02-1.36-4.2-1.36-6.41,0-5.2,1.73-9.35,5.13-12.3,3.39-2.94,8.15-4.45,14.11-4.45h10.48c2.49,0,3.7-1.06,3.7-3.24v-.53c.07-1.84-.75-3.6-2.19-4.75h0Zm97.83,39.45c-3.22,1.66-6.79,2.49-10.41,2.41-3.53,.02-7.02-.7-10.26-2.11-3.13-1.39-5.95-3.39-8.3-5.88-2.42-2.56-4.29-5.59-5.51-8.9-1.39-3.66-2.08-7.55-2.04-11.47-.04-3.87,.65-7.71,2.04-11.31,1.23-3.33,3.07-6.4,5.43-9.05,2.34-2.47,5.13-4.47,8.22-5.88,3.27-1.38,6.78-2.1,10.33-2.11,3.72-.08,7.41,.77,10.71,2.49,2.64,1.35,4.88,3.38,6.49,5.88,0-.83-.08-2.26-.15-4.22s-.38-6.03-.38-6.03v-25.27h15.09v82.22h-15.09v-6.56c-1.06,2.26-3.24,4.22-6.19,5.81Zm-294.18-21.12c.32,2.94,1.72,5.65,3.92,7.62,2.26,2.17,5.32,3.32,8.45,3.17,2.16,0,4.3-.46,6.26-1.36,1.89-.9,3.47-2.35,4.53-4.15l15.92,1.66c-2.41,5.81-6.03,10.11-10.79,12.82-4.92,2.79-10.49,4.22-16.14,4.15-3.82,.02-7.61-.69-11.16-2.11-3.36-1.37-6.43-3.37-9.05-5.88-2.58-2.56-4.6-5.61-5.96-8.98-2.79-7.34-2.79-15.44,0-22.78,1.35-3.35,3.35-6.4,5.88-8.98,2.5-2.55,5.51-4.55,8.83-5.88,3.57-1.45,7.39-2.17,11.24-2.11,3.63-.02,7.23,.62,10.64,1.89,3.39,1.2,6.46,3.16,8.98,5.73,2.74,2.89,4.87,6.3,6.26,10.03,1.58,4.07,2.34,8.9,2.34,14.56v.6h-40.13Zm281.66-18.41c-1.66,.71-3.15,1.77-4.37,3.09-1.23,1.36-2.18,2.95-2.79,4.68-1.41,3.74-1.41,7.87,0,11.62,.62,1.73,1.56,3.32,2.79,4.68,2.56,2.79,6.17,4.38,9.96,4.37,1.93,.02,3.84-.39,5.58-1.21,1.66-.74,3.15-1.82,4.37-3.17,1.23-1.36,2.18-2.95,2.79-4.68,1.3-3.76,1.3-7.85,0-11.62-.64-1.71-1.59-3.3-2.79-4.68-1.26-1.29-2.74-2.34-4.37-3.09-3.57-1.51-7.6-1.51-11.16,0h0Zm-34.4,1.81c-3.85,0-6.64,.98-8.37,3.02-1.73,2.04-2.64,5.36-2.64,10.03v25.42h-15.09v-53.56h14.33v8.6c.99-2.79,2.84-5.19,5.28-6.86,2.56-1.65,5.56-2.49,8.6-2.41,1.42,0,2.84,.15,4.22,.45v15.31h-6.34Zm-51.9,26.63c2.11-1.51,3.17-3.92,3.17-7.32v-3.92c-.49,.54-1.16,.89-1.89,.98-.92,.15-1.86,.23-2.79,.23h-5.81c-1.99-.08-3.97,.45-5.66,1.51-1.3,1.08-2.02,2.69-1.96,4.37-.03,1.74,.71,3.4,2.04,4.53,1.58,1.26,3.56,1.91,5.58,1.81,2.61,.04,5.16-.72,7.32-2.19h0Zm-65.1-41.34c2.8-1.35,5.87-2.04,8.98-2.04,2.75,0,5.48,.46,8.07,1.36,2.4,.83,4.58,2.17,6.41,3.92,1.78,1.81,3.17,3.96,4.07,6.34,1.07,2.66,1.58,5.51,1.51,8.37v35.23h-15.84v-31.38c0-3.47-.91-5.96-2.72-7.47-1.8-1.43-4.04-2.2-6.34-2.19-2.2-.02-4.36,.55-6.26,1.66-1.9,1.21-3.61,2.71-5.05,4.45v34.92h-15.09V104.92h15.09v30.55c.01,.48-.01,.96-.08,1.43,0,.53-.08,.98-.08,1.36-.06,.48-.09,.95-.08,1.43,1.97-2.48,4.5-4.45,7.39-5.73h0Zm-46.09-13.12c-2.76-1.51-5.83-2.34-8.98-2.41-2.56-.05-5.08,.66-7.24,2.04-1.99,1.22-3.17,3.41-3.09,5.73,0,1.89,.69,3.72,1.96,5.13,1.36,1.51,3.7,3.09,6.94,4.68l6.86,3.17c3.02,1.46,5.97,3.07,8.83,4.83,2.42,1.51,4.63,3.34,6.56,5.43,1.76,1.98,3.17,4.25,4.15,6.71,.9,2.67,1.36,5.48,1.36,8.3,.02,3.12-.63,6.2-1.89,9.05-1.34,2.93-3.24,5.56-5.58,7.77-2.62,2.38-5.67,4.25-8.98,5.51-3.89,1.43-8.01,2.12-12.14,2.04-5.68,.07-11.31-1.06-16.52-3.32-4.79-2.28-9.18-5.34-12.97-9.05l9.05-12.22c2.85,3.03,6.26,5.49,10.03,7.24,3.14,1.6,6.59,2.47,10.11,2.56,3.47,0,6.26-.91,8.3-2.64,1.96-1.52,3.1-3.86,3.09-6.34,.01-2.75-1.27-5.35-3.47-7.02-2.94-2.19-6.13-4.01-9.5-5.43l-5.73-2.72c-5.04-2.2-9.55-5.47-13.2-9.58-3.17-3.78-4.89-8.57-4.83-13.5-.1-3.36,.68-6.69,2.26-9.66,1.48-2.84,3.53-5.33,6.03-7.32,2.65-2.04,5.63-3.6,8.83-4.6,3.37-1.05,6.88-1.59,10.41-1.58,4.9,.02,9.74,1.11,14.18,3.17,4.74,2.13,9.14,4.95,13.05,8.37l-9.43,11.77c-2.43-2.52-5.29-4.59-8.45-6.11h0Zm-80.26,26.78c-2.09,1.87-3.54,4.35-4.15,7.09h24.14c-.38-2.71-1.72-5.2-3.77-7.02-4.73-3.79-11.45-3.82-16.22-.08"/></g><g><path id="path1539" class="cls-1" d="M47.45,180.87c-12.92-28.72-7.69-64.44,12.49-88.52,16.76-21.41,43.89-34.97,71.28-33.64,7.67,.33,15.26,1.65,22.58,3.95-13.96,.26-27.77,2.9-40.84,7.79-6.5,2.45-12.77,5.47-18.74,9.02-2.94,1.82-5.82,3.74-8.65,5.82-2.83,2.08-5.45,4.32-8.01,6.67-2.24,2.05-4.36,4.23-6.35,6.51-2.03,2.3-3.9,4.64-5.71,7.1-3.54,4.94-6.61,10.19-9.18,15.7-5.21,11.01-8.36,22.88-9.29,35.02-.72,8.25-.56,16.56,.48,24.77l-.05-.21Z"/><path class="cls-2" d="M193.06,102.54l-3.45,1.2s-121,46.42-121,46.42c-.07,.03-.13,.06-.2,.09-.06,.03-.12,.07-.18,.11-.05,.04-.11,.08-.16,.12-.05,.04-.09,.09-.13,.14-.04,.05-.08,.1-.11,.15-.03,.05-.07,.11-.09,.16-.03,.05-.05,.11-.07,.17-.02,.06-.04,.12-.05,.18-.01,.06-.02,.12-.03,.18,0,.06-.01,.12-.01,.18,0,.06,0,.12,.01,.18,0,.06,.02,.12,.03,.18s.03,.12,.05,.17c.02,.06,.04,.11,.07,.17,.03,.05,.06,.11,.09,.16,.02,.03,.04,.06,.07,.09,.02,.03,.04,.06,.07,.08,.03,.02,.06,.04,.09,.05,.03,0,.07,.02,.1,.03,0,0,0,0,0,0,.05,.01,.1,.01,.15,.02l.16,.02c.11,.02,.21,.03,.32,.05,.1,.02,.21,.03,.31,.05,.1,.02,.21,.03,.31,.05,.1,.01,.21,.03,.31,.04,.1,.01,.21,.03,.31,.04,.1,.01,.21,.03,.31,.04,.1,.01,.21,.03,.31,.04,.1,.01,.2,.03,.31,.04,.1,.01,.2,.03,.31,.04,.1,.01,.2,.03,.3,.04,.1,.01,.2,.03,.3,.04,.1,.01,.2,.03,.3,.04,.1,.01,.2,.03,.3,.04,.1,.01,.2,.03,.3,.04l.3,.04c.1,.01,.2,.03,.3,.04,.1,.01,.2,.03,.3,.04,.1,.01,.2,.03,.29,.04,.1,.01,.2,.03,.29,.04,.1,.01,.19,.03,.29,.04,.1,.01,.19,.03,.29,.04,.1,.01,.19,.03,.29,.04,.1,.01,.19,.03,.29,.04,.1,.01,.19,.03,.29,.04,.09,.01,.19,.03,.28,.04,.09,.01,.19,.03,.28,.04,.09,.01,.19,.03,.28,.04,.09,.01,.19,.03,.28,.04,.09,.01,.19,.03,.28,.04,.09,.01,.19,.03,.28,.04,.09,.01,.19,.03,.28,.04,.09,.01,.18,.03,.28,.04,.09,.01,.18,.03,.28,.04,.09,.01,.18,.03,.27,.04,.09,.01,.18,.03,.27,.04,.09,.01,.18,.03,.27,.04,.09,.01,.18,.03,.27,.04,.09,.01,.18,.03,.27,.04,.09,.01,.18,.03,.27,.04,.09,.01,.18,.03,.27,.04,.09,.01,.18,.02,.27,.04,.09,.01,.18,.02,.26,.04,.09,.01,.18,.02,.26,.04,.09,.01,.17,.02,.26,.04,.09,.01,.17,.02,.26,.04l.26,.04c.09,.01,.17,.02,.26,.04,.09,.01,.17,.02,.26,.04,.09,.01,.17,.02,.26,.04,.08,.01,.17,.02,.25,.04,.08,.01,.17,.02,.25,.04,.08,.01,.17,.02,.25,.04l.25,.04c.08,.01,.17,.02,.25,.03,.08,.01,.17,.02,.25,.03,.08,.01,.17,.02,.25,.03,.08,.01,.16,.02,.25,.03,.08,.01,.16,.02,.25,.03,.08,.01,.16,.02,.24,.03,.08,.01,.16,.02,.24,.03,.08,.01,.16,.02,.24,.03,.08,.01,.16,.02,.24,.03,.08,.01,.16,.02,.24,.03,.08,.01,.16,.02,.24,.03,.08,.01,.16,.02,.24,.03,.08,.01,.16,.02,.24,.03,.08,.01,.16,.02,.24,.03,.08,.01,.16,.02,.23,.03,.08,.01,.16,.02,.23,.03,.08,.01,.15,.02,.23,.03,.08,.01,.15,.02,.23,.03,.08,.01,.15,.02,.23,.03,.08,.01,.15,.02,.23,.03,.08,.01,.15,.02,.23,.03,.08,.01,.15,.02,.23,.03,.08,.01,.15,.02,.23,.03,.07,.01,.15,.02,.22,.03,.07,.01,.15,.02,.22,.03,.07,.01,.15,.02,.22,.03,.07,.01,.15,.02,.22,.03,.07,.01,.15,.02,.22,.03,.07,.01,.15,.02,.22,.03,.07,0,.14,.02,.22,.03,.07,0,.14,.02,.22,.03,.07,0,.14,.02,.22,.03,.07,0,.14,.02,.21,.03,.07,0,.14,.02,.21,.03,.07,0,.14,.02,.21,.03,.07,0,.14,.02,.21,.03,.07,0,.14,.02,.21,.03l.21,.03c.07,0,.14,.02,.21,.03l.21,.03c.07,0,.14,.02,.21,.03,.07,0,.14,.02,.2,.03l.2,.03c.07,0,.14,.02,.2,.03,.07,0,.13,.02,.2,.03,.07,0,.13,.02,.2,.03,.07,0,.13,.02,.2,.03,.07,0,.13,.02,.2,.03,.07,0,.13,.02,.2,.03,.07,0,.13,.02,.2,.03,.07,0,.13,.02,.2,.03l.19,.03c.06,0,.13,.02,.19,.03l.19,.03c.06,0,.13,.02,.19,.03,.06,0,.13,.02,.19,.03,.06,0,.13,.02,.19,.03,.06,0,.13,.02,.19,.03,.06,0,.12,.02,.19,.03,.06,0,.12,.02,.19,.03,.06,0,.12,.02,.19,.02l.18,.02c.06,0,.12,.02,.18,.02,.06,0,.12,.02,.18,.02,.06,0,.12,.02,.18,.02,.06,0,.12,.02,.18,.02,.06,0,.12,.02,.18,.02,.06,0,.12,.02,.18,.02,.06,0,.12,.02,.18,.02,.06,0,.12,.02,.18,.02l.18,.02c.06,0,.12,.02,.17,.02,.06,0,.12,.02,.17,.02,.06,0,.12,.02,.17,.02,.06,0,.11,.02,.17,.02l.17,.02c.06,0,.11,.02,.17,.02,.06,0,.11,.02,.17,.02l.17,.02c.06,0,.11,.01,.17,.02,.06,0,.11,.01,.17,.02,.06,0,.11,.01,.17,.02,.05,0,.11,.01,.16,.02l.16,.02,.16,.02c.05,0,.11,.01,.16,.02,.05,0,.11,.01,.16,.02,.05,0,.11,.01,.16,.02,.05,0,.11,.01,.16,.02l.16,.02c.05,0,.1,.01,.16,.02,.05,0,.1,.01,.16,.02,.05,0,.1,.01,.16,.02l.15,.02c.05,0,.1,.01,.15,.02,.05,0,.1,.01,.15,.02,.05,0,.1,.01,.15,.02,.05,0,.1,.01,.15,.02,.05,0,.1,.01,.15,.02,.05,0,.1,.01,.15,.02,.05,0,.1,.01,.15,.02,.05,0,.1,.01,.15,.02,.05,0,.1,.01,.15,.02,.05,0,.1,.01,.15,.02,.05,0,.1,.01,.14,.02,.05,0,.1,.01,.14,.02,.05,0,.1,.01,.14,.02,.05,0,.09,.01,.14,.02,.05,0,.09,.01,.14,.02,.05,0,.09,.01,.14,.02,.05,0,.09,.01,.14,.02l.14,.02s.09,.01,.14,.02c.05,0,.09,.01,.14,.02,.05,0,.09,.01,.14,.02l.14,.02,.13,.02s.09,.01,.13,.02c.04,0,.09,.01,.13,.02,.04,0,.09,.01,.13,.02,.04,0,.09,.01,.13,.02,.04,0,.09,.01,.13,.02,.04,0,.09,.01,.13,.02,.04,0,.09,.01,.13,.02,.04,0,.09,.01,.13,.02,.04,0,.08,.01,.13,.02,.04,0,.08,.01,.13,.02,.04,0,.08,.01,.13,.02,.04,0,.08,.01,.13,.02,.04,0,.08,.01,.12,.02,.04,0,.08,.01,.12,.02,.04,0,.08,.01,.12,.02,.04,0,.08,.01,.12,.02,.04,0,.08,.01,.12,.02,.04,0,.08,.01,.12,.02,.04,0,.08,.01,.12,.02,.04,0,.08,.01,.12,.02,.04,0,.08,.01,.12,.02,.04,0,.08,.01,.12,.02l.12,.02s.08,0,.12,.01c.04,0,.08,0,.12,.01,.04,0,.08,0,.11,.01,.04,0,.08,0,.11,.01,.04,0,.08,0,.11,.01,.04,0,.07,0,.11,.01,.04,0,.07,0,.11,.01,.04,0,.07,0,.11,.01,.04,0,.07,0,.11,.01,.04,0,.07,0,.11,.01,.04,0,.07,0,.11,.01,.04,0,.07,0,.11,.01,.04,0,.07,0,.11,.01,.04,0,.07,0,.11,.01h.11s.07,.02,.1,.03c.03,0,.07,0,.1,.01h.1s.07,.02,.1,.03c.03,0,.07,0,.1,.01,.03,0,.07,0,.1,.01,.03,0,.07,0,.1,.01,.03,0,.07,0,.1,.01,.03,0,.07,0,.1,.01h.1s.07,.02,.1,.03c.03,0,.06,0,.1,.01,.03,0,.06,0,.1,.01,.03,0,.06,0,.1,.01,.03,0,.06,0,.1,.01h.09s.06,.02,.09,.02c.03,0,.06,0,.09,.01,.03,0,.06,0,.09,.01,.03,0,.06,0,.09,.01,.03,0,.06,0,.09,.01,.03,0,.06,0,.09,.01,.03,0,.06,0,.09,.01,.03,0,.06,0,.09,.01,.03,0,.06,0,.09,.01,.03,0,.06,0,.09,.01,.03,0,.06,0,.09,.01,.03,0,.06,0,.09,.01,.03,0,.06,0,.09,.01,.03,0,.06,0,.09,.01,.03,0,.06,0,.08,.01,.03,0,.06,0,.08,.01,.03,0,.06,0,.08,.01,.03,0,.06,0,.08,.01h.08s.05,.02,.08,.02c.03,0,.05,0,.08,.01,.03,0,.05,0,.08,.01,.03,0,.05,0,.08,.01,.03,0,.05,0,.08,.01,.03,0,.05,0,.08,.01,.03,0,.05,0,.08,.01,.03,0,.05,0,.08,.01,.03,0,.05,0,.08,.01,.03,0,.05,0,.08,0,.03,0,.05,0,.08,0h.08s.05,.02,.07,.02c.02,0,.05,0,.07,0h.07s.05,.02,.07,.02c.02,0,.05,0,.07,0,.02,0,.05,0,.07,0,.02,0,.05,0,.07,0,.02,0,.05,0,.07,0,.02,0,.05,0,.07,0,.02,0,.05,0,.07,0,.02,0,.05,0,.07,0,.02,0,.05,0,.07,0h.07s.05,.02,.07,.02c.02,0,.04,0,.07,0h.07s.04,.01,.07,.02h.07s.04,.01,.07,.02c.02,0,.04,0,.06,0,.02,0,.04,0,.06,0,.02,0,.04,0,.06,0,.02,0,.04,0,.06,0,.02,0,.04,0,.06,0,.02,0,.04,0,.06,0,.02,0,.04,0,.06,0,.02,0,.04,0,.06,0h.06s.04,.01,.06,.02c.02,0,.04,0,.06,0,.02,0,.04,0,.06,0h.06s.04,.01,.06,.02c.02,0,.04,0,.06,0,.02,0,.04,0,.06,0,.02,0,.04,0,.06,0,.02,0,.04,0,.06,0,.02,0,.04,0,.06,0,.02,0,.04,0,.06,0,.02,0,.04,0,.06,0,.02,0,.04,0,.05,0h.05s.04,.01,.05,.02h.05s.04,.01,.05,.02c.02,0,.03,0,.05,0h.05s.03,.01,.05,.01c.02,0,.03,0,.05,0,.02,0,.03,0,.05,0,.02,0,.03,0,.05,0,.02,0,.03,0,.05,0h.05s.03,.01,.05,.01c.02,0,.03,0,.05,0,.02,0,.03,0,.05,0,.02,0,.03,0,.05,0,.02,0,.03,0,.05,0h.05s.03,.01,.05,.01c.02,0,.03,0,.05,0,.02,0,.03,0,.05,0h.05s.03,.01,.05,.01c.01,0,.03,0,.04,0,.01,0,.03,0,.04,0,.01,0,.03,0,.04,0,.01,0,.03,0,.04,0,.01,0,.03,0,.04,0h.04s.03,.01,.04,.01c.01,0,.03,0,.04,0,.01,0,.03,0,.04,0,.01,0,.03,0,.04,0,.01,0,.03,0,.04,0h.04s.03,.01,.04,.01c.01,0,.03,0,.04,0,.01,0,.03,0,.04,0,.01,0,.03,0,.04,0,.01,0,.03,0,.04,0,.01,0,.03,0,.04,0,.01,0,.03,0,.04,0,.01,0,.03,0,.04,0,.01,0,.03,0,.04,0,.01,0,.02,0,.04,0h.04s.02,.01,.04,.01c.01,0,.02,0,.04,0,.01,0,.02,0,.04,0,.01,0,.02,0,.04,0,.01,0,.02,0,.04,0,.01,0,.02,0,.04,0,.01,0,.02,0,.03,0h.03s.02,.01,.03,.01c.01,0,.02,0,.03,0,.01,0,.02,0,.03,0,.01,0,.02,0,.03,0,.01,0,.02,0,.03,0,.01,0,.02,0,.03,0,.01,0,.02,0,.03,0,.01,0,.02,0,.03,0,.01,0,.02,0,.03,0,.01,0,.02,0,.03,0,.01,0,.02,0,.03,0,.01,0,.02,0,.03,0,.01,0,.02,0,.03,0,.01,0,.02,0,.03,0,.01,0,.02,0,.03,0,.01,0,.02,0,.03,0,.01,0,.02,0,.03,0,0,0,.02,0,.03,0,0,0,.02,0,.03,0,0,0,.02,0,.03,0,0,0,.02,0,.03,0,0,0,.02,0,.03,0,0,0,.02,0,.03,0,0,0,.02,0,.03,0,0,0,.02,0,.03,0h.03s.02,.01,.03,.01c0,0,.02,0,.03,0,0,0,.02,0,.03,0,0,0,.02,0,.03,0,0,0,.02,0,.03,0,0,0,.02,0,.03,0,0,0,.02,0,.03,0,0,0,.02,0,.03,0h.03s.02,.01,.03,.01c0,0,.02,0,.03,0,0,0,.02,0,.03,0,0,0,.02,0,.03,0,0,0,.02,0,.03,0,0,0,.02,0,.03,0,0,0,.02,0,.02,0h.02s.02,.01,.02,.01c0,0,.02,0,.02,0,0,0,.02,0,.02,0,0,0,.02,0,.02,0,0,0,.02,0,.02,0,0,0,.02,0,.02,0,0,0,.02,0,.02,0,0,0,.02,0,.02,0,0,0,.02,0,.02,0,0,0,.02,0,.02,0h.02s.02,.01,.02,.01c0,0,.02,0,.02,0,0,0,.02,0,.02,0h.02s.02,.01,.02,.01c0,0,.01,0,.02,0,0,0,.01,0,.02,0,0,0,.01,0,.02,0,0,0,.01,0,.02,0s.01,0,.02,0c0,0,.01,0,.02,0s.01,0,.02,0c0,0,.01,0,.02,0,0,0,.01,0,.02,0s.01,0,.02,0c0,0,.01,0,.02,0h.02s.01,.01,.02,.01c0,0,.01,0,.02,0,0,0,.01,0,.02,0s.01,0,.02,0c0,0,.01,0,.02,0,0,0,.01,0,.02,0,0,0,.01,0,.02,0s.01,0,.02,0c0,0,.01,0,.02,0s.01,0,.02,0c0,0,.01,0,.02,0,0,0,.01,0,.02,0,0,0,.01,0,.02,0s.01,0,.02,0c0,0,.01,0,.02,0,0,0,.01,0,.02,0,0,0,.01,0,.02,0s.01,0,.02,0c0,0,.01,0,.02,0,0,0,.01,0,.02,0,0,0,.01,0,.02,0s.01,0,.02,0,.01,0,.02,0c0,0,.01,0,.02,0,0,0,.01,0,.02,0,0,0,.01,0,.02,0,0,0,.01,0,.02,0,0,0,.01,0,.02,0,0,0,.01,0,.02,0,0,0,.01,0,.02,0,0,0,.01,0,.02,0,0,0,.01,0,.02,0,0,0,.01,0,.02,0,0,0,.01,0,.02,0,0,0,.01,0,.02,0,0,0,.01,0,.02,0,0,0,.01,0,.02,0,0,0,.01,0,.02,0,0,0,.01,0,.02,0,0,0,.01,0,.02,0h.02s.01,.02,.02,.02h.02s.01,.02,.02,.02c0,0,.01,0,.02,0,0,0,.01,0,.02,0,0,0,.01,0,.02,0,0,0,.01,0,.02,0,0,0,.01,0,.02,0,0,0,.01,0,.02,0,0,0,.01,0,.02,0,0,0,.01,0,.02,0,0,0,.01,0,.02,0,0,0,.01,0,.02,0,0,0,.01,0,.02,.01,0,0,.01,0,.02,.01,0,0,.01,0,.02,.01,0,0,.01,0,.02,.01h.02s.01,.02,.02,.02c0,0,.01,0,.02,.01,0,0,.01,0,.02,.01h.02s.01,.02,.02,.02c0,0,.01,0,.02,.01,0,0,.01,0,.02,.01,0,0,.02,0,.02,.01,0,0,.01,0,.02,.01,.99,.48,1.82,1.14,2.48,1.93,.84,.73,1.5,1.92,1.79,3.9,.39,1.41,.75,3.65,1.56,8.83l7.24,40.48c.28,1.49,2.3,1.75,2.95,.38l52.92-110.49c.21-.44,.4-.84,.53-1.2l.95-2.15Zm-54.49,94.76l-4.35-38.73,44.39-40.46-40.04,79.19Z"/></g></svg>